<?xml version="1.0" standalone="no"?>
<!DOCTYPE svg PUBLIC "-//W3C//DTD SVG 20010904//EN"
 "http://www.w3.org/TR/2001/REC-SVG-20010904/DTD/svg10.dtd">
<svg version="1.0" xmlns="http://www.w3.org/2000/svg"
 width="1280.000000pt" height="1280.000000pt" viewBox="0 0 1280.000000 1280.000000"
 preserveAspectRatio="xMidYMid meet">
<metadata>
Created by potrace 1.16, written by Peter Selinger 2001-2019
</metadata>
<g transform="translate(0.000000,1280.000000) scale(0.100000,-0.100000)"
fill="#000000" stroke="none">
<path d="M6080 12610 c-1112 -59 -2184 -411 -3099 -1017 -1538 -1019 -2538
-2637 -2755 -4458 -31 -263 -39 -407 -40 -725 0 -412 28 -742 94 -1114 226
-1260 848 -2434 1769 -3334 301 -295 586 -524 951 -765 231 -152 375 -234 665
-377 791 -391 1622 -599 2510 -629 631 -21 1197 40 1790 193 890 231 1697 648
2435 1259 178 148 608 576 754 752 908 1093 1406 2386 1455 3777 41 1162 -226
2269 -791 3276 -527 940 -1321 1753 -2253 2303 -809 479 -1704 765 -2640 844
-214 18 -642 26 -845 15z m-798 -1261 c172 -103 372 -273 504 -431 l39 -46
105 15 c196 30 737 22 910 -13 20 -4 31 3 55 34 133 173 303 318 533 456 60
36 65 38 123 31 54 -6 67 -13 138 -70 103 -83 176 -166 266 -300 143 -213 238
-458 286 -738 l11 -68 62 58 c116 111 225 169 393 208 82 19 255 22 338 6 168
-34 313 -110 430 -226 179 -177 248 -376 226 -647 -6 -68 -13 -193 -16 -278
-20 -477 -112 -867 -286 -1210 -208 -411 -514 -689 -903 -821 -61 -21 -112
-41 -113 -46 -1 -4 24 -90 55 -191 l58 -183 81 -69 c134 -114 220 -224 293
-375 192 -402 128 -874 -166 -1221 l-52 -61 49 -53 c132 -141 163 -347 80
-526 -53 -113 -161 -205 -289 -244 -62 -19 -95 -20 -861 -20 -765 0 -799 -1
-871 -21 -126 -33 -257 -50 -394 -50 -154 -1 -265 13 -394 46 l-94 25 -801 0
c-521 0 -816 4 -842 10 -153 40 -267 134 -331 275 -21 45 -28 79 -32 150 -8
151 25 246 119 349 l51 56 -38 46 c-203 240 -289 466 -288 759 1 194 34 336
114 496 l38 76 -29 44 c-202 298 -240 757 -98 1172 100 292 295 541 524 667
33 19 61 34 63 35 1 1 -16 29 -38 62 -220 331 -249 726 -78 1068 43 84 120
203 167 257 27 31 28 39 34 159 25 509 206 962 500 1251 73 73 160 136 193
141 75 11 91 7 176 -44z m-2889 -7284 c14 -9 77 -79 138 -156 62 -77 116 -138
119 -137 4 2 59 66 121 142 134 163 157 179 247 173 76 -6 127 -37 163 -100
l24 -42 3 -390 c3 -443 2 -456 -63 -521 -96 -96 -256 -71 -314 49 -19 40 -21
60 -21 258 l0 214 -48 -52 c-78 -84 -156 -83 -232 5 l-40 47 0 -208 c0 -226
-5 -255 -58 -310 -99 -105 -270 -71 -326 65 -14 32 -16 98 -16 435 0 367 2
401 19 439 19 41 64 84 111 103 36 15 142 7 173 -14z m1710 11 c130 -57 164
-227 64 -324 -57 -56 -87 -62 -287 -62 l-180 0 0 -59 0 -60 161 -3 c155 -3
161 -4 180 -27 28 -34 26 -117 -3 -148 -21 -22 -27 -23 -180 -23 l-158 0 0
-29 0 -30 219 -3 c204 -3 222 -4 248 -24 42 -31 57 -71 57 -144 0 -77 -20
-122 -67 -147 -28 -16 -68 -18 -342 -21 -207 -2 -325 1 -355 8 -58 15 -105 51
-133 103 -21 41 -22 51 -25 415 -4 413 1 456 49 515 62 75 66 76 412 77 243 0
314 -3 340 -14z m1007 -8 c24 -13 58 -40 74 -61 29 -36 31 -45 31 -117 0 -72
-2 -81 -31 -117 -41 -52 -105 -83 -171 -83 l-53 0 0 -282 c0 -266 -1 -284 -21
-325 -39 -80 -133 -124 -221 -102 -64 15 -131 77 -147 134 -7 24 -11 144 -11
306 l0 267 -64 4 c-84 5 -134 37 -170 109 -33 68 -33 113 2 180 22 43 38 59
81 81 l53 28 302 0 c293 0 303 -1 346 -22z m962 -16 c107 -52 191 -158 218
-274 5 -24 10 -177 10 -341 0 -247 -3 -304 -16 -335 -38 -93 -141 -147 -232
-121 -55 15 -117 69 -138 117 -9 23 -14 72 -14 153 l0 119 -95 0 -95 0 0 -120
c0 -100 -3 -127 -19 -159 -27 -52 -79 -95 -133 -110 -96 -27 -210 39 -237 136
-18 63 -14 606 4 677 36 139 149 251 290 287 17 4 111 7 210 6 l180 -2 67 -33z
m1209 15 c80 -42 126 -150 99 -232 -16 -49 -66 -104 -115 -126 -35 -16 -69
-19 -252 -19 l-213 0 0 -190 0 -190 95 0 95 0 0 83 c0 92 19 144 66 189 79 73
216 63 287 -22 38 -44 50 -101 44 -200 -11 -190 -129 -334 -307 -374 -91 -21
-279 -21 -371 0 -146 33 -256 141 -295 289 -17 60 -19 437 -3 504 33 144 153
267 294 302 17 4 143 7 281 8 244 1 252 0 295 -22z m959 -13 c85 -40 149 -104
191 -189 l34 -70 3 -333 c3 -324 2 -335 -19 -378 -58 -122 -217 -146 -315 -49
-53 54 -64 91 -64 228 l0 107 -95 0 -95 0 0 -127 c0 -117 -2 -129 -25 -169
-27 -46 -86 -87 -142 -99 -68 -14 -162 33 -200 100 -23 40 -23 42 -21 385 l3
345 28 56 c15 31 45 76 66 101 39 44 138 104 196 119 16 4 111 7 210 6 179 -2
181 -2 245 -33z m634 13 c14 -10 77 -80 138 -157 61 -77 115 -140 118 -140 4
0 55 61 114 135 129 162 149 178 231 183 75 4 136 -25 180 -87 l30 -43 3 -399
c2 -267 -1 -412 -8 -439 -27 -100 -141 -166 -238 -139 -54 15 -106 58 -133
110 -17 34 -19 60 -19 251 l0 212 -47 -51 c-52 -55 -89 -70 -145 -58 -21 5
-50 26 -80 58 l-48 51 0 -204 c0 -113 -5 -221 -10 -241 -17 -62 -83 -118 -159
-134 -74 -16 -177 41 -212 119 -17 38 -19 73 -19 432 0 266 4 402 11 425 31
92 106 142 205 137 36 -2 72 -11 88 -21z m1664 -1 c-2 -18 -6 -22 -14 -15 -8
6 -13 5 -17 -4 -3 -8 -16 -13 -29 -12 -13 1 -31 3 -41 4 -11 0 -15 6 -11 12 4
7 -1 7 -16 -1 -12 -7 -33 -10 -46 -7 -14 2 -24 -1 -24 -7 0 -6 -4 -5 -9 3 -5
8 -14 10 -21 6 -7 -4 -15 -2 -19 4 -11 18 -253 31 -326 17 -11 -2 -24 -1 -29
2 -28 16 52 22 311 22 l293 0 -2 -24z m-366 -33 c11 -9 18 -11 18 -5 0 14 46
16 54 3 3 -5 31 -11 63 -13 31 -3 59 -10 60 -15 2 -6 13 -9 23 -6 11 3 20 0
20 -6 0 -7 20 -11 50 -11 30 0 52 -5 57 -13 4 -8 23 -21 41 -30 l32 -15 0 27
c0 15 5 32 10 37 7 7 3 17 -10 32 -29 31 2 30 33 0 53 -54 76 -150 42 -178 -8
-7 -15 -20 -15 -29 0 -23 -35 -51 -64 -51 -14 0 -37 -5 -53 -11 -17 -7 -88
-10 -178 -9 -82 1 -147 -1 -144 -4 3 -3 60 -7 128 -8 67 -1 124 -5 127 -10 3
-4 26 -8 52 -9 44 -1 45 -1 17 -10 -16 -5 -102 -9 -190 -9 -88 1 -168 1 -179
0 -16 0 -18 -6 -13 -42 3 -24 8 -52 11 -63 2 -11 5 -23 5 -27 1 -4 75 -8 166
-10 185 -3 185 -3 185 -75 0 -35 -5 -45 -29 -62 -25 -18 -46 -21 -177 -23
l-148 -3 -10 -32 c-16 -57 -9 -59 232 -67 199 -7 220 -9 249 -29 17 -12 30
-23 27 -26 -2 -2 2 -11 8 -19 20 -24 13 -126 -10 -160 -34 -47 -110 -65 -255
-57 -256 12 -307 13 -313 4 -7 -12 -134 -12 -134 0 0 5 -14 11 -32 15 -18 4
-48 24 -72 49 l-41 42 -3 395 c-3 415 -1 445 41 493 23 28 49 36 45 15 -4 -15
24 -18 34 -4 4 6 24 11 45 11 100 3 113 5 113 20 0 21 58 20 82 -2z m-7636
-1298 c59 -29 108 -84 119 -136 15 -69 -63 -109 -102 -53 -50 73 -88 105 -130
111 -56 7 -86 -1 -128 -38 -57 -50 -82 -174 -54 -272 23 -83 104 -136 185
-121 47 9 82 40 114 100 24 46 28 49 65 49 34 0 41 -4 49 -27 22 -63 -42 -166
-129 -207 -55 -26 -179 -29 -247 -6 -59 21 -114 74 -146 143 -24 51 -27 69
-27 167 0 96 3 116 23 155 81 155 252 211 408 135z m1029 14 c75 -32 114 -69
147 -136 31 -64 33 -74 33 -173 0 -120 -16 -168 -79 -238 -56 -62 -124 -85
-238 -80 -144 5 -211 47 -266 168 -32 69 -36 206 -9 286 32 92 107 159 204
184 49 12 169 6 208 -11z m790 -4 l25 -24 0 -241 0 -240 129 0 c71 0 141 -4
155 -10 34 -12 44 -54 21 -80 -17 -19 -32 -20 -211 -20 -206 0 -217 2 -229 53
-3 12 -5 141 -3 286 3 262 3 263 27 282 31 26 57 24 86 -6z m920 0 l25 -24 0
-240 0 -240 146 -3 c131 -3 147 -5 160 -22 18 -26 18 -51 -2 -70 -24 -24 -389
-24 -416 1 -17 15 -18 38 -18 304 0 286 0 288 22 303 32 22 55 20 83 -9z
m2189 0 c44 -19 103 -69 122 -106 17 -34 18 -91 2 -107 -7 -7 -26 -12 -44 -12
-28 0 -36 7 -63 50 -42 69 -82 92 -147 87 -101 -7 -146 -68 -152 -205 -6 -129
26 -195 111 -222 77 -24 146 9 187 90 28 56 33 60 65 60 108 0 60 -171 -66
-234 -45 -22 -66 -26 -139 -26 -110 0 -176 30 -231 103 -111 148 -82 392 58
490 79 56 206 70 297 32z m1991 -4 c123 -55 187 -194 164 -359 -17 -118 -69
-194 -164 -238 -72 -34 -208 -34 -280 0 -66 30 -127 100 -149 170 -19 61 -23
184 -6 244 25 96 115 182 210 202 62 13 175 3 225 -19z m-2905 -1 c24 -24 25
-39 6 -66 -13 -17 -30 -19 -175 -22 l-161 -3 0 -70 0 -69 134 0 c159 0 186 -7
186 -49 0 -52 -26 -61 -183 -61 l-138 0 3 -82 3 -83 168 -5 c134 -4 170 -8
177 -20 14 -22 12 -47 -6 -64 -13 -14 -48 -16 -229 -16 -210 0 -214 0 -229 22
-14 19 -16 64 -16 294 l0 273 26 20 c25 20 40 21 220 21 181 0 195 -1 214 -20z
m2008 4 c24 -17 30 -62 10 -82 -8 -8 -45 -12 -100 -12 l-88 0 0 -247 c0 -274
-2 -283 -65 -283 -62 0 -64 9 -67 281 l-3 244 -85 3 c-93 3 -110 11 -110 53 0
54 20 59 265 59 183 0 224 -3 243 -16z m1989 -12 c96 -50 116 -202 36 -274
-10 -10 -35 -24 -56 -33 l-36 -15 44 -46 c25 -25 61 -79 81 -119 35 -72 36
-75 20 -100 -13 -20 -25 -25 -56 -25 -44 0 -32 -13 -149 172 -51 80 -76 98
-136 98 l-45 0 0 -117 c0 -94 -3 -120 -17 -135 -20 -22 -70 -23 -95 -1 -17 15
-18 38 -18 299 l0 283 28 21 c26 21 35 22 192 18 147 -3 170 -6 207 -26z"/>
<path d="M5064 11256 c-222 -175 -401 -471 -486 -804 -40 -158 -66 -346 -69
-489 l-2 -118 -64 -79 c-108 -134 -178 -267 -219 -422 -27 -98 -27 -350 0
-449 41 -151 110 -287 211 -412 30 -37 55 -71 55 -74 0 -4 -16 -10 -35 -13
-60 -12 -207 -92 -280 -154 -340 -287 -504 -849 -384 -1317 25 -98 115 -285
162 -340 l35 -41 -39 -64 c-47 -78 -91 -189 -116 -291 -13 -55 -18 -114 -18
-229 0 -183 20 -278 90 -426 60 -129 115 -206 217 -306 l88 -88 -50 -25 c-65
-33 -122 -90 -157 -157 -23 -45 -27 -68 -31 -153 -3 -83 0 -109 17 -155 43
-114 158 -205 290 -230 33 -6 358 -10 847 -10 763 0 797 -1 866 -20 209 -58
444 -62 663 -13 l120 27 825 6 c555 4 835 9 855 16 108 39 200 116 242 203 25
50 28 67 28 156 0 87 -3 107 -27 157 -34 73 -95 139 -161 173 l-53 28 97 96
c149 149 238 312 280 516 34 165 21 381 -33 540 -65 190 -203 376 -367 494
l-45 32 -82 262 -82 262 77 17 c300 65 594 254 796 513 191 244 324 549 400
920 37 182 54 326 65 575 5 118 13 258 16 310 23 347 -221 646 -584 716 -100
19 -179 17 -292 -6 -250 -51 -460 -233 -530 -459 l-17 -54 -7 114 c-24 391
-124 718 -302 986 -66 99 -186 229 -272 294 l-63 48 -91 -55 c-50 -31 -127
-83 -172 -116 -98 -74 -277 -253 -329 -329 l-39 -57 -39 9 c-225 51 -699 52
-1050 3 l-45 -6 -51 68 c-115 154 -334 342 -534 457 l-46 26 -79 -63z m224
-240 c171 -129 297 -268 363 -399 23 -44 34 -57 47 -53 47 15 208 46 297 57
130 16 561 16 690 0 99 -13 280 -46 310 -57 9 -4 15 -1 15 8 0 39 109 189 214
293 104 103 273 235 301 235 19 0 122 -110 185 -198 186 -260 290 -621 290
-1007 l0 -131 50 -49 c28 -28 67 -74 87 -102 l36 -53 -6 -142 c-14 -286 -66
-626 -136 -873 -16 -56 -27 -77 -58 -104 -309 -272 -776 -454 -1313 -512 -146
-15 -480 -15 -630 0 -757 79 -1357 401 -1576 846 -63 129 -79 197 -78 340 0
92 6 138 22 198 39 138 118 275 230 398 l49 54 6 165 c18 476 149 838 400
1106 80 86 62 87 205 -20z m3572 -868 c0 -46 3 -100 6 -121 l7 -37 32 79 c17
44 44 96 60 117 25 33 31 36 65 30 21 -3 59 -15 85 -26 37 -16 46 -24 40 -38
-9 -24 -27 -188 -23 -215 2 -16 14 -2 49 59 69 118 72 119 126 59 88 -98 141
-249 129 -365 -61 -598 -97 -820 -172 -1055 -171 -538 -440 -877 -832 -1047
-35 -15 -176 -62 -315 -104 -139 -41 -256 -79 -260 -83 -10 -10 92 -39 161
-48 l49 -5 66 -211 c37 -116 65 -213 63 -215 -2 -2 -32 5 -67 14 -46 13 -106
18 -214 18 -183 1 -278 -20 -432 -95 l-103 -51 -69 63 c-73 64 -193 150 -248
177 -18 9 -33 18 -33 21 0 3 31 24 68 45 445 258 833 689 1001 1113 141 356
224 823 237 1333 3 124 10 248 16 275 15 72 71 174 124 226 43 42 45 43 51 21
3 -12 20 -53 38 -90 l32 -67 7 85 c9 103 21 153 41 170 22 18 132 48 178 49
l37 1 0 -82z m-4218 -2041 c75 -148 168 -294 259 -404 32 -39 59 -73 59 -76 0
-2 -24 -15 -52 -27 -29 -12 -96 -50 -148 -85 -141 -92 -311 -256 -187 -180
197 121 382 176 602 178 155 2 242 -33 345 -137 69 -70 125 -161 153 -251 32
-102 32 -302 -1 -396 -12 -36 -29 -74 -36 -84 -11 -16 -16 -13 -43 36 -17 30
-39 63 -48 74 -16 20 -16 20 -10 -5 4 -14 9 -70 12 -125 l5 -101 -36 -28 c-58
-44 -139 -76 -209 -83 l-66 -6 20 40 c24 48 37 157 30 242 l-6 64 -14 -49
c-35 -121 -119 -244 -169 -244 -34 0 -100 49 -174 129 -108 117 -169 257 -172
398 0 40 -2 73 -4 73 -2 0 -15 -26 -30 -57 -24 -52 -27 -69 -26 -158 1 -89 7
-119 39 -222 6 -19 -3 -26 -77 -62 -223 -111 -450 -47 -592 167 -184 279 -189
699 -11 1068 101 208 262 368 429 425 88 30 84 33 158 -114z m2003 -1096 c237
-57 426 -162 601 -336 180 -179 294 -387 350 -640 25 -115 30 -324 9 -446 -14
-83 -58 -254 -70 -267 -4 -4 -459 200 -486 219 -25 18 -26 20 -17 81 43 290
-111 584 -372 711 -166 81 -340 97 -505 47 -130 -40 -265 -131 -335 -224 -42
-57 -40 -57 -213 21 -67 30 -138 61 -157 69 l-35 15 51 18 c218 78 380 316
401 591 l6 80 51 19 c212 79 497 95 721 42z m1428 -237 c95 -21 257 -100 333
-163 214 -177 331 -477 295 -751 -14 -99 -52 -222 -94 -300 -89 -166 -252
-313 -415 -374 -63 -23 -80 -25 -294 -28 -124 -2 -229 0 -233 4 -4 3 10 47 30
98 175 438 123 941 -138 1329 -32 46 -57 87 -57 91 0 13 133 72 204 90 91 24
269 26 369 4z m-3105 -438 c23 -14 42 -28 42 -30 0 -1 -9 -29 -21 -62 -41
-120 -60 -235 -66 -401 -8 -228 17 -377 94 -576 19 -49 32 -91 29 -94 -16 -16
-111 -21 -290 -16 -188 5 -202 7 -266 33 -184 76 -335 222 -424 411 -87 183
-103 406 -45 604 20 67 85 211 100 220 3 3 33 -9 65 -25 86 -43 190 -64 288
-57 93 7 218 43 291 86 l50 29 55 -48 c30 -26 74 -59 98 -74z m1537 -276 c79
-38 141 -100 179 -180 28 -59 31 -74 31 -160 0 -82 -4 -103 -26 -150 -74 -155
-238 -245 -400 -219 -125 20 -234 102 -287 217 -23 49 -27 70 -27 152 0 84 3
103 29 157 47 102 155 191 259 213 73 16 175 3 242 -30z m-750 -275 c15 -27
24 -64 28 -115 23 -293 272 -520 570 -520 132 0 243 38 356 123 52 38 102 56
164 57 15 0 27 -5 27 -11 0 -21 -69 -97 -132 -144 -125 -95 -256 -138 -418
-137 -126 1 -195 18 -310 74 -67 33 -101 58 -170 127 -98 98 -146 179 -180
305 -23 82 -30 229 -16 294 l8 34 25 -24 c14 -13 35 -41 48 -63z m-1258 -813
c-9 -10 -26 -40 -39 -67 -31 -70 -32 -199 -1 -267 l22 -48 -92 0 c-103 0 -153
17 -199 66 -35 38 -48 74 -48 136 0 62 22 111 66 146 51 41 90 50 203 51 99 1
103 0 88 -17z m533 12 c0 -3 -9 -17 -20 -31 -59 -75 -65 -225 -15 -345 7 -17
-6 -18 -187 -18 -189 0 -195 1 -215 23 -39 42 -53 83 -53 157 0 77 19 127 62
167 48 45 83 52 261 53 92 0 167 -3 167 -6z m3022 -29 c59 -41 88 -101 88
-182 0 -68 -18 -124 -52 -160 -21 -22 -27 -23 -219 -23 l-197 0 21 43 c17 33
21 61 22 132 0 91 -11 134 -47 187 -10 14 -18 29 -18 33 0 3 81 5 179 3 l179
-3 44 -30z m413 0 c63 -39 90 -90 90 -170 0 -74 -23 -117 -84 -160 -40 -28
-48 -30 -158 -33 l-114 -4 16 32 c45 88 38 237 -15 323 l-30 49 123 -4 c117
-3 126 -5 172 -33z m-3262 -24 c43 -64 195 -218 279 -281 l79 -60 -209 0 -210
0 -30 35 c-75 84 -69 221 13 302 23 24 45 43 47 43 3 0 17 -17 31 -39z m2354
-3 c75 -82 79 -223 10 -302 l-32 -37 -188 3 -189 3 69 50 c80 59 214 190 262
258 19 26 37 47 41 47 4 0 16 -10 27 -22z"/>
<path d="M5087 10898 c-76 -118 -149 -296 -194 -468 -18 -71 -26 -132 -30
-245 l-6 -150 83 88 c122 130 264 236 413 309 l69 33 -6 40 c-12 75 -101 236
-189 341 -45 54 -87 99 -94 102 -7 2 -28 -21 -46 -50z"/>
<path d="M7490 10883 c-105 -115 -178 -238 -214 -360 l-15 -52 97 -52 c165
-87 352 -236 427 -338 17 -22 33 -41 38 -41 13 0 7 194 -9 291 -21 122 -82
310 -140 429 -50 105 -102 190 -114 190 -5 0 -36 -30 -70 -67z"/>
<path d="M5335 9816 c-47 -21 -67 -51 -73 -105 -14 -153 202 -307 393 -279 39
5 57 14 82 42 40 43 49 77 34 126 -25 85 -121 174 -225 211 -64 22 -166 25
-211 5z"/>
<path d="M7153 9815 c-128 -39 -243 -160 -243 -255 0 -167 279 -178 439 -18
101 100 106 220 11 270 -41 22 -143 23 -207 3z"/>
<path d="M6120 9514 c-41 -7 -106 -23 -145 -34 -162 -49 -387 -188 -393 -244
-7 -58 55 -77 99 -30 69 74 254 159 424 195 116 24 365 26 484 4 167 -32 303
-89 414 -175 66 -50 102 -61 125 -38 33 33 -2 81 -108 155 -182 124 -402 184
-674 182 -83 -1 -185 -7 -226 -15z"/>
<path d="M6142 9360 c-86 -23 -168 -65 -190 -98 -30 -46 -20 -81 37 -134 59
-54 221 -153 306 -188 l55 -22 55 22 c87 36 252 137 306 189 41 40 49 53 49
85 0 98 -173 166 -420 165 -90 0 -145 -5 -198 -19z"/>
<path d="M5509 9059 c-18 -18 -20 -29 -15 -73 11 -84 67 -190 139 -260 105
-102 212 -146 357 -146 120 0 255 44 331 107 l30 26 22 -20 c33 -30 105 -68
167 -89 42 -14 84 -19 175 -19 108 1 127 3 185 28 165 69 287 222 306 381 6
51 5 55 -20 71 -45 29 -70 10 -83 -64 -7 -34 -22 -82 -34 -107 -29 -56 -119
-143 -182 -173 -151 -73 -341 -43 -475 73 -30 25 -57 46 -62 46 -5 0 -32 -21
-62 -46 -134 -116 -324 -146 -475 -73 -63 30 -153 117 -182 173 -12 25 -28 73
-35 106 -16 81 -45 101 -87 59z"/>
<path d="M8707 9953 c-25 -28 -30 -67 -14 -106 27 -62 97 -63 123 0 27 63 -3
123 -61 123 -18 0 -39 -8 -48 -17z"/>
<path d="M8953 9944 c-25 -40 -20 -94 12 -121 34 -30 60 -29 90 2 27 26 33 72
14 108 -16 30 -28 37 -66 37 -24 0 -37 -7 -50 -26z"/>
<path d="M9191 9844 c-43 -54 -12 -144 49 -144 42 0 70 34 70 85 0 77 -76 114
-119 59z"/>
<path d="M8481 9834 c-29 -37 -27 -89 4 -119 61 -62 149 12 115 96 -23 55 -85
67 -119 23z"/>
<path d="M8782 9721 c-57 -20 -114 -67 -139 -116 -20 -38 -20 -122 0 -161 19
-37 79 -91 115 -105 117 -45 223 -27 303 50 54 53 73 106 63 172 -10 62 -89
141 -163 163 -70 21 -113 20 -179 -3z"/>
<path d="M6385 6600 c3 -5 12 -10 20 -10 29 0 199 -61 275 -99 158 -79 304
-200 413 -343 28 -37 53 -64 55 -59 5 15 -42 125 -79 187 -19 31 -72 92 -117
135 -93 88 -212 154 -333 183 -73 18 -244 22 -234 6z"/>
<path d="M6245 5951 c-51 -23 -118 -98 -133 -149 -37 -122 14 -247 123 -305
31 -17 58 -22 115 -22 112 0 184 46 229 145 40 88 23 192 -43 267 -53 60 -103
83 -186 83 -42 0 -79 -7 -105 -19z"/>
<path d="M5710 3630 l0 -60 95 0 95 0 0 60 0 60 -95 0 -95 0 0 -60z"/>
<path d="M7880 3630 l0 -60 95 0 95 0 0 60 0 60 -95 0 -95 0 0 -60z"/>
<path d="M3359 2638 c-53 -30 -81 -87 -87 -173 -8 -129 36 -210 128 -235 131
-35 240 96 212 257 -5 35 -20 79 -32 98 -44 71 -148 96 -221 53z"/>
<path d="M9245 2646 c-97 -42 -135 -208 -75 -331 59 -122 231 -121 291 2 59
122 20 289 -77 329 -42 17 -99 17 -139 0z"/>
<path d="M10257 2653 c-4 -3 -7 -42 -7 -86 l0 -79 100 4 c88 3 102 6 125 28
49 46 23 113 -50 130 -47 11 -159 13 -168 3z"/>
</g>
</svg>
